PathFileType	4	(X/Y/Z)	D:\TRACE\v60_Jaco2_6-2-23\BothDRS_Motion3_7-v60.trc
DataRate	CameraRate	NumFrames	NumMarkers	Units	OrigDataRate	OrigDataStartFrame	OrigNumFrames
100.00	100.00	      42	9	mm	100.00	6126	      7000
Frame#	Time	front left toe			Front right toe			aft left toe			aft right toe			Arm			FL body			FR body			AL Body			AR Body			
		X1	Y1	Z1	X2	Y2	Z2	X3	Y3	Z3	X4	Y4	Z4	X5	Y5	Z5	X6	Y6	Z6	X7	Y7	Z7	X8	Y8	Z8	X9	Y9	Z9	

6126	61.250	-141.53545	130.88248	-164.16016	243.51772	15.64028	-187.97983	-102.28668	11.30718	452.06683	251.79271	125.62666	442.51602	73.97048	1135.65149	-454.12863	-29.45936	516.47308	-349.85162	128.15599	507.99240	-357.56949	26.78760	559.84961	591.90253	177.32449	541.96375	584.18842	
6127	61.260	-140.21297	139.05037	-165.56496	243.05496	15.54681	-187.86153	-103.25586	11.69450	452.34229	252.64249	133.77866	440.96970	74.85257	1135.53162	-453.98099	-28.60606	516.57843	-349.78659	129.09708	507.86981	-357.37326	26.31227	559.64459	592.02728	176.89134	541.39838	584.32562	
6128	61.270	-138.52422	146.14075	-166.70239	242.10042	15.25369	-187.85526	-103.68238	11.52700	452.36118	254.40619	140.10312	440.29099	76.06091	1135.33130	-453.65857	-27.84094	516.73022	-349.70792	129.76822	507.94244	-357.08011	25.89687	559.40588	592.12134	176.49388	541.15924	584.58069	
6129	61.280	-137.64261	151.60782	-167.72697	241.85185	15.15631	-187.73448	-104.21882	11.41150	452.35938	256.17487	143.17963	440.18958	77.07076	1135.21655	-453.49603	-26.96065	517.00812	-349.63794	131.03134	507.92331	-356.73022	25.07539	559.34222	592.32874	176.02342	541.01349	585.08936	
6130	61.290	-135.95439	152.56682	-167.60403	241.69591	15.28330	-187.75121	-104.47527	11.19487	452.29459	258.18460	143.65285	440.51987	78.19882	1135.31982	-453.21954	-26.06016	517.32416	-349.50653	131.74088	508.10718	-356.46365	24.70273	559.33734	592.66101	175.77318	540.92242	585.68091	
6131	61.300	-134.11560	149.95161	-166.88501	241.57202	15.48826	-187.71155	-104.80310	10.90335	452.18704	259.59689	141.42249	441.28857	80.09819	1135.38867	-452.82181	-25.00621	517.24811	-349.14209	133.37622	508.17548	-356.11307	24.36637	559.41718	592.99115	174.73318	540.91528	586.08984	
6132	61.310	-131.69937	145.04779	-165.98212	241.58018	15.63342	-187.52341	-104.99902	10.51388	452.29770	260.81396	137.67479	442.72934	81.79243	1135.67102	-452.12747	-24.22958	517.32056	-348.91702	134.19583	508.19623	-355.33328	22.86480	559.31451	593.54828	174.23666	540.98370	586.85901	
6133	61.320	-128.55051	139.04510	-165.22621	241.52652	15.78093	-187.36320	-105.21674	10.14300	452.52301	262.46484	133.06165	444.53281	82.83575	1135.87927	-451.47513	-23.70261	517.51428	-348.71933	134.71211	508.41330	-354.91663	22.31152	559.35852	593.80762	173.61845	540.91571	587.54327	
6134	61.330	-125.59080	132.71429	-165.18845	241.38945	15.87184	-186.99115	-105.06525	9.69487	452.49844	264.21970	127.74952	446.16348	83.87905	1136.39136	-450.34680	-22.58934	517.52582	-348.17380	135.96492	508.68207	-354.37021	21.80241	558.95984	594.09656	172.78491	540.66882	588.02588	
6135	61.340	-123.16640	126.62556	-165.55585	240.84273	15.87776	-186.69992	-105.29127	9.56172	452.56882	264.33078	121.26635	447.31415	84.02629	1137.06360	-449.12570	-21.87587	518.15271	-348.02011	136.68604	509.03281	-353.68521	20.97371	558.80457	594.76196	171.76425	540.55273	588.88428	
6136	61.350	-120.88589	120.08026	-166.07101	240.07895	16.04890	-186.23651	-105.85468	9.41525	452.38583	265.90659	113.89880	448.77365	84.57545	1137.41260	-448.20242	-21.08510	518.40778	-347.67072	137.80902	509.25351	-352.90289	20.28339	558.39288	595.28021	171.11661	540.18872	589.74390	
6137	61.360	-118.57681	113.30114	-166.63835	239.18950	15.78799	-186.38959	-106.21015	9.05849	452.34235	265.29413	105.74790	449.39081	84.78387	1137.78796	-446.96381	-20.11353	518.41510	-346.85553	138.66187	509.46341	-352.31802	19.24714	557.83844	595.83160	170.46419	539.79279	590.60022	
6138	61.370	-116.34828	105.59067	-166.70862	239.12544	15.74495	-186.35695	-106.92195	9.06144	452.55563	265.77225	96.74272	450.02567	85.84874	1137.78345	-445.75873	-19.40063	518.53516	-346.46356	139.30954	509.87390	-351.37662	18.29595	557.37073	596.26624	169.80963	539.38660	591.24927	
6139	61.380	-113.86668	97.32004	-166.52937	239.33025	15.86100	-186.15343	-107.29743	8.82026	452.44000	267.10208	88.84647	451.67966	86.13473	1138.25952	-444.58987	-18.48437	518.82141	-345.81003	140.16492	509.95853	-350.66000	17.48926	556.94635	597.06873	168.93590	538.85339	592.39838	
6140	61.390	-111.60336	88.56355	-166.02438	239.04555	15.81468	-185.96899	-107.60733	8.65543	452.32327	268.10672	80.08572	453.40063	87.20078	1138.49768	-443.72910	-18.00159	518.92242	-345.42746	140.79558	510.46967	-349.86398	16.74827	556.56488	597.81573	168.22662	538.66382	593.16882	
6141	61.400	-109.87641	79.16544	-164.89943	239.08484	16.18599	-185.48921	-107.99789	8.53411	452.37494	268.15378	71.29214	454.46503	87.83297	1138.90393	-442.41391	-17.29212	519.23969	-344.71472	141.50009	510.64124	-348.95877	16.22964	556.17401	598.27356	167.62985	538.37201	594.15820	
6142	61.410	-108.87859	69.77889	-162.89026	238.97078	16.19251	-185.35059	-108.43743	8.39622	452.42679	268.66324	62.68801	456.31653	88.24623	1138.89819	-441.21997	-16.65788	519.18188	-344.24146	141.93678	510.63474	-348.13861	15.28795	555.88110	599.13055	166.65512	538.21338	595.01276	
6143	61.420	-108.18403	60.13056	-160.75714	239.18884	16.32415	-185.12653	-108.80606	7.98195	452.61597	268.72269	54.63170	458.01419	88.65070	1139.03955	-440.17795	-15.89703	519.12225	-343.31955	142.82890	510.76590	-346.98294	14.18993	555.58929	599.85193	166.17632	538.11804	595.92365	
6144	61.430	-108.21281	51.59869	-158.39328	239.49051	16.51157	-184.61719	-109.21758	7.87131	452.56537	268.44574	46.62916	459.69437	89.15469	1139.03162	-438.87469	-15.30023	519.00012	-342.77777	143.78415	510.65378	-346.04752	13.88668	555.31909	600.80023	165.74130	537.69427	596.96667	
6145	61.440	-108.72050	43.56404	-157.07449	238.54236	16.40349	-184.63940	-109.41893	7.79761	452.45676	267.99011	39.06516	460.90845	89.79150	1138.97070	-437.95139	-14.33056	518.96436	-341.84955	144.28525	510.79462	-345.18481	13.15603	555.07672	601.59174	165.45230	537.49872	598.14996	
6146	61.450	-109.77811	35.60739	-156.31142	238.10440	16.36238	-184.60687	-109.60648	7.68480	452.42627	266.85831	32.00764	462.30435	89.82913	1139.09021	-436.97452	-13.89582	519.12421	-341.14273	144.78645	511.14618	-343.98727	12.28959	554.76025	602.36829	164.23059	537.25397	599.06732	
6147	61.460	-110.02200	26.81780	-154.38228	237.87817	16.40106	-184.54128	-109.31351	7.15925	452.45996	266.47247	25.81851	463.62329	90.33965	1138.89294	-436.08011	-13.13020	519.13806	-340.21817	145.30882	511.19934	-343.07913	11.83011	554.38159	603.38953	161.23645	537.96515	601.38232	
6148	61.470	-110.42235	20.62802	-152.92738	237.53606	16.31390	-184.62717	-110.05998	7.24978	452.33481	265.94208	19.24010	464.77777	90.89928	1138.77112	-434.99435	-12.74884	519.17188	-339.52234	145.13403	511.36148	-341.54892	11.08981	554.06128	604.34381	163.37207	537.01941	602.38586	
6149	61.480	-111.25487	18.31609	-154.44449	237.26768	16.27839	-184.43323	-110.27135	7.04804	452.32898	265.33948	12.32523	466.25348	91.45272	1139.04089	-433.78183	-12.18047	519.11731	-338.46265	145.81973	511.34320	-340.73807	10.13745	553.86188	605.26068	162.51030	536.68463	603.51880	
6150	61.490	-112.53408	18.44283	-155.47060	237.09851	16.26543	-184.22568	-110.32383	6.85995	452.35278	265.04782	9.25702	464.79321	92.15577	1139.39417	-432.54663	-11.64290	519.78510	-337.59595	146.35074	511.73669	-339.45526	9.73281	553.50275	606.29468	161.27116	536.40106	604.64398	
6151	61.500	-112.82169	17.24955	-154.08662	237.39087	16.67478	-184.15770	-110.01825	6.36659	452.55515	265.16776	6.99076	466.42972	93.68523	1139.60388	-431.13446	-11.16203	520.76550	-336.35461	147.46562	512.40350	-338.26257	8.89703	553.70801	607.40735	161.43556	536.56860	605.93384	
6152	61.510	-112.09956	18.20402	-153.62990	237.92320	16.95345	-183.52597	-110.16315	6.62829	452.66708	265.52011	6.34664	465.05228	94.66647	1140.48083	-429.38376	-10.73625	521.19818	-335.41534	148.10701	513.23151	-337.13895	7.92876	554.83014	608.67017	159.88803	537.90002	607.33716	
6153	61.520	-112.17806	19.00926	-153.55394	237.89024	19.55457	-183.05733	-109.76170	8.79824	452.96149	265.25702	6.35366	466.47998	95.63970	1141.78137	-427.82706	-9.96777	521.44659	-334.08124	148.02341	513.25482	-335.03275	7.39014	556.08966	609.78259	156.01682	540.12958	609.07336	
6154	61.530	-112.89549	17.27029	-152.95369	234.76767	23.16530	-181.07448	-108.83670	12.37846	455.54276	264.52240	6.09082	466.61972	96.70965	1143.14185	-426.10678	-9.40849	522.11438	-333.35187	149.08519	514.01764	-334.56699	6.19834	556.69452	610.65521	155.57269	540.64819	609.82892	
6155	61.540	-112.77050	16.64984	-153.13611	232.51723	27.59179	-176.95331	-105.44814	17.93109	457.24481	264.52576	5.92291	466.48090	96.76192	1144.26111	-424.67261	-8.53870	522.63812	-332.59134	150.04768	514.59521	-333.24750	5.09137	556.44440	611.42877	158.45416	539.41113	609.73273	
6156	61.550	-113.23871	17.61199	-153.49706	228.84094	36.30814	-175.67308	-103.40150	26.10151	458.21695	264.47946	5.78021	466.44928	97.05412	1144.72070	-423.49344	-7.70062	523.16620	-331.83432	150.94287	515.05212	-332.36871	4.04552	555.95410	612.40771	157.57573	538.97650	610.70392	
6157	61.560	-113.61906	17.56621	-153.65739	229.43930	46.32907	-174.11708	-102.15952	36.49845	457.66879	264.05737	5.67527	466.66910	96.90485	1144.75769	-422.37540	-7.41383	523.56110	-331.41422	151.19185	515.59338	-331.77805	3.59568	555.45862	612.82385	156.69341	538.32770	611.70361	
6158	61.570	-113.84313	16.83271	-153.48433	230.73730	58.98563	-174.44862	-103.00317	47.41220	456.38126	263.45126	5.40455	466.78119	97.84447	1144.51135	-421.51718	-7.18986	523.68842	-330.76364	151.78236	515.52136	-330.83472	3.26204	554.61749	613.50586	154.88147	537.71307	612.47455	
6159	61.580	-113.96150	16.56747	-153.28568	233.40555	71.06196	-173.86659	-106.28845	59.59473	455.79956	263.47198	5.12546	466.80856	98.21867	1144.16663	-420.61545	-6.95928	523.45673	-329.80777	151.69569	515.62750	-330.62250	2.60806	553.49921	614.42938	155.50838	536.65125	613.30872	
6160	61.590	-114.27657	16.54014	-153.39375	236.92046	83.11455	-172.88737	-108.65499	71.03770	455.71347	263.45120	5.03557	466.84988	98.42969	1143.90906	-419.62381	-6.99830	523.30011	-329.52161	151.67236	515.55225	-329.95026	2.33318	552.55756	614.81232	154.68011	535.96552	613.91718	
6161	61.600	-114.51307	16.34641	-153.39551	240.65248	95.39257	-171.16280	-111.42384	83.48037	456.30545	263.27939	5.07281	466.96371	98.20422	1143.44482	-418.54480	-7.12562	522.99377	-329.16681	151.69456	515.18225	-328.98929	2.14920	551.74072	615.45569	154.13474	534.80298	614.52509	
6162	61.610	-114.50679	16.12821	-153.29572	243.97527	106.80335	-169.00111	-112.75882	94.84144	457.13000	263.23407	4.83438	467.01282	97.31761	1143.85156	-417.49884	-7.12603	522.68335	-328.49142	151.55710	515.08466	-328.53964	1.92962	550.93506	616.15540	153.87723	534.25098	615.08899	
6163	61.620	-114.53703	16.08103	-153.27643	245.49783	117.39574	-167.16522	-112.89671	105.31356	458.46631	263.17880	4.74895	467.09210	96.81834	1144.15027	-416.14734	-6.92553	522.44720	-327.87988	150.92288	515.01880	-328.07211	1.77059	550.39429	616.66260	153.99408	533.57043	615.47028	
6164	61.630	-114.71574	16.00770	-153.28130	246.91574	126.73346	-165.30571	-113.34019	114.64986	459.44272	263.08725	4.91921	467.23846	96.81068	1144.08752	-415.36542	-6.89228	522.16656	-327.40396	151.99574	514.41858	-327.56802	1.87720	549.99634	617.03711	154.04695	533.05127	615.98804	
6165	61.640	-114.91869	15.83624	-153.17079	248.03065	134.94861	-163.89297	-113.85639	122.74691	460.44772	263.01642	4.79489	467.36496	96.63079	1143.63660	-414.74744	-6.91626	522.06378	-327.04651	152.04936	514.17334	-326.84885	1.80122	549.58344	617.53821	153.73390	532.65356	616.68884	
6166	61.650	-115.51244	16.40808	-153.41209	251.93954	141.76149	-161.61488	-114.74958	129.56386	461.34671	263.04691	4.52375	467.41739	96.61736	1143.17883	-414.33423	-7.01157	521.84717	-326.43790	150.94312	514.49585	-325.89883	1.82913	548.96735	618.40912	153.72182	532.33539	617.04761	
6167	61.660	-115.55658	16.47007	-153.30415	253.85925	145.18561	-159.95363	-115.50751	133.66942	462.37787	263.01981	4.40778	467.55246	96.81427	1142.80786	-414.00739	-7.20697	521.97864	-325.82132	151.58577	514.26563	-325.80789	1.95151	548.67554	618.83008	153.98924	531.91705	617.59613	
